<?xml version="1.0" standalone="no"?>
<!DOCTYPE svg PUBLIC "-//W3C//DTD SVG 1.1//EN" "http://www.w3.org/Graphics/SVG/1.1/DTD/svg11.dtd" >
<svg xmlns="http://www.w3.org/2000/svg">
<metadata>
Created by FontForge 20120731 at Mon Nov  7 09:20:55 2016
 By admin
</metadata>
<defs>
<font id="iconfont" horiz-adv-x="1024" >
  <font-face 
    font-family="iconfont"
    font-weight="500"
    font-stretch="normal"
    units-per-em="1024"
    panose-1="2 0 6 3 0 0 0 0 0 0"
    ascent="896"
    descent="-128"
    x-height="792"
    bbox="-57 -97.5862 1833 931"
    underline-thickness="0"
    underline-position="0"
    unicode-range="U+0078-E660"
  />
<missing-glyph 
 />
    <glyph glyph-name=".notdef" 
 />
    <glyph glyph-name=".notdef" 
 />
    <glyph glyph-name=".null" horiz-adv-x="0" 
 />
    <glyph glyph-name="nonmarkingreturn" horiz-adv-x="341" 
 />
    <glyph glyph-name="x" unicode="x" horiz-adv-x="1001" 
d="M281 543q-27 -1 -53 -1h-83q-18 0 -36.5 -6t-32.5 -18.5t-23 -32t-9 -45.5v-76h912v41q0 16 -0.5 30t-0.5 18q0 13 -5 29t-17 29.5t-31.5 22.5t-49.5 9h-133v-97h-438v97zM955 310v-52q0 -23 0.5 -52t0.5 -58t-10.5 -47.5t-26 -30t-33 -16t-31.5 -4.5q-14 -1 -29.5 -0.5
t-29.5 0.5h-32l-45 128h-439l-44 -128h-29h-34q-20 0 -45 1q-25 0 -41 9.5t-25.5 23t-13.5 29.5t-4 30v167h911zM163 247q-12 0 -21 -8.5t-9 -21.5t9 -21.5t21 -8.5q13 0 22 8.5t9 21.5t-9 21.5t-22 8.5zM316 123q-8 -26 -14 -48q-5 -19 -10.5 -37t-7.5 -25t-3 -15t1 -14.5
t9.5 -10.5t21.5 -4h37h67h81h80h64h36q23 0 34 12t2 38q-5 13 -9.5 30.5t-9.5 34.5q-5 19 -11 39h-368zM336 498v228q0 11 2.5 23t10 21.5t20.5 15.5t34 6h188q31 0 51.5 -14.5t20.5 -52.5v-227h-327z" />
    <glyph glyph-name="fanhui" unicode="&#xe600;" horiz-adv-x="1000" 
d="M341 388l386 -386l-47 -47l-431 431l443 443l46 -45z" />
    <glyph glyph-name="huifu" unicode="&#xe601;" 
d="M481 532v176q0 7 -2 13q-3 6 -7 11q-10 9 -23 9t-23 -9l-321 -321q-13 -14 -7 -32q-3 -17 8 -28l319 -319q11 -11 26 -9q13 0 21.5 9.5t8.5 22.5v173q49 -5 102.5 -48t67.5 -100l47 27q-21 81 -87.5 134t-152.5 53h-1h-2v-1q-3 1 -6 1q-13 0 -22 -9.5t-9 -22.5v-133
l-252 252l252 252v-132q0 -13 9 -22.5t22 -9.5h1h1h16q133 0 242.5 -71.5t163.5 -188.5l55 32q-61 128 -181 207.5t-266 83.5z" />
    <glyph glyph-name="message" unicode="&#xe60e;" 
d="M190 504l136 -33l375 1q1 0 3 -0.5t5 -4t3 -9.5q0 -2 -0.5 -4t-3 -5t-7.5 -3h-376q-8 0 -10 12q0 12 12 14l-137 35l-2 -13h-87q-3 0 -7 -1.5t-11 -8.5t-8 -18l1 -503q0 -2 0.5 -5t7 -9.5t17.5 -10.5h827q2 1 5.5 2t10 7.5t7.5 15.5v507l-59 -37l-1 -433l-755 -2l-1 435
l15 1l363 -243l363 242h18l56 35q0 2 -0.5 6t-6.5 11t-17 9h-90l1 193l-137 132h-508l134 -149h173q1 0 2.5 -1t4.5 -4t4 -6t-1 -7t-9 -7h-174q-10 1 -11 14q0 2 1 4t4.5 5t8.5 3l-136 149h-3v-226l137 -22h373q10 0 11 -13q1 -10 -9 -12h-379q-1 0 -2.5 1t-3.5 4t-2 7
q-1 12 13 14l-137 25z" />
    <glyph glyph-name="qq" unicode="&#xe614;" 
d="M139 317q-24 -59 -27.5 -108t15.5 -60q13 -7 32.5 7.5t38.5 45.5q16 -66 72 -116q-29 -11 -45.5 -28.5t-16.5 -37.5q0 -34 43.5 -57.5t105.5 -23.5q56 0 97.5 19.5t50.5 48.5h18q8 -29 50 -48.5t98 -19.5q62 0 105.5 23.5t43.5 57.5q0 20 -16.5 37.5t-45.5 28.5
q56 50 71 116q20 -31 39 -45.5t32 -7.5q19 11 16 60t-27 108q-19 46 -42 78t-43 40q1 7 1 12q0 35 -17 64v4q0 16 -7 30q-5 125 -77.5 207t-190 82t-189.5 -82t-77 -207q-7 -14 -7 -30v-4q-17 -29 -17 -64q0 -5 1 -12q-20 -8 -43.5 -40t-41.5 -78z" />
    <glyph glyph-name="weibo" unicode="&#xe615;" 
d="M-57 928v0v0zM743 399q-16 3 -21 10t-2 12l3 6q2 1 3 3t4 9.5t5 14.5t3 17.5t-0.5 20t-6.5 20.5t-14 19q-16 16 -40.5 20.5t-49.5 0.5t-47 -10t-36 -12l-15 -6q-11 -4 -18 -5t-11 1t-6 3.5t-1.5 7.5t1 10.5t2.5 14t3 14.5q0 13 -1.5 25t-7 26t-16 23t-26.5 14.5
t-41.5 3.5t-57.5 -14q-38 -13 -78 -39t-69 -54t-53.5 -54.5t-37.5 -42.5l-12 -18q-36 -47 -54 -94.5t-17 -72.5v-23q7 -53 33 -95t62 -67.5t84.5 -44t93 -26.5t94.5 -12q81 -6 169 13t163.5 66.5t106.5 113.5q19 39 19.5 73t-12 55.5t-31.5 38.5t-36 24.5t-31 9.5v0zM407 56
q-119 -6 -202.5 46t-83.5 132q0 78 83 135t203 62.5t203 -40t83 -123.5q0 -80 -84.5 -143.5t-201.5 -68.5v0zM375 362q-32 -4 -57.5 -15.5t-40 -26.5t-24.5 -32t-13.5 -33.5t-4.5 -30.5t-1 -21l1 -9v-5q0 -3 2 -13t6 -18t12.5 -18t21.5 -17q72 -35 135 -21t102 63
q15 19 20 46.5t-2 55.5t-24.5 51.5t-52.5 36t-80 7.5v0zM335 153q-7 -1 -13 -0.5t-11 2t-9.5 4t-8 6.5t-6.5 7.5t-4.5 8.5t-1.5 11q0 12 6.5 23.5t18 20t26.5 9.5q10 1 19.5 -1t16 -5.5t11.5 -8.5t7 -11.5t2 -14.5q0 -12 -7 -23t-19.5 -19t-26.5 -9v0zM429 232
q-8 -5 -16 -4.5t-12 7.5l-2 4q-1 2 -1 4v5q0 3 1 5l2 5q1 2 4 3l3 5q9 6 17 5t12 -9q3 -4 2.5 -9.5t-3.5 -10.5t-7 -10v0zM821 463q6 0 11.5 3.5t9 8.5t4.5 10q1 1 1 3q13 126 -88 144q-30 5 -55 1q-8 0 -13.5 -4t-9.5 -10t-4 -12q0 -11 8 -19t19 -8q86 20 92 -55
q2 -19 -2 -35q0 -11 8 -19t19 -8v0zM802 774q-49 11 -130 -4q-1 0 -3 -1l-1 -3l-1 -1q-12 -3 -19.5 -13.5t-7.5 -22.5q0 -17 11 -28t26 -11h3q2 0 5.5 1t8 2t9.5 2.5t9 3t15 1.5t27 -1.5t35 -8t38.5 -16.5t39 -27.5t33.5 -41.5q29 -65 11 -125q0 -1 -0.5 -2.5t-1.5 -6t-2 -8
t-2.5 -9.5t-1.5 -11q0 -10 5.5 -16.5t14 -9.5t19.5 -3q31 0 36 38q14 43 15.5 82t-5.5 69t-21.5 56t-33.5 44t-42 33t-44.5 24t-44.5 14v0z" />
    <glyph glyph-name="tel" unicode="&#xe618;" 
d="M716 -62q-68 0 -179 69q-105 65 -206 163v0l-21 21q-98 100 -163 206q-68 111 -68 179q0 66 61 147q11 16 24.5 31t38.5 33t44 18q25 0 61 -37q27 -28 57 -71q28 -41 48 -78q23 -43 23 -64q0 -27 -29 -47q-12 -9 -42 -21q-25 -11 -31 -16q5 -21 36 -66q36 -53 79 -97
q43 -42 96 -79q45 -30 66 -35q5 6 16 31q13 30 21 42q20 28 47 28q22 0 65 -22q37 -20 78 -48q43 -31 70 -57q37 -36 37 -61q0 -20 -17.5 -44.5t-33 -38t-30.5 -24.5q-82 -62 -148 -62v0zM367 206q96 -94 197 -155q99 -61 152 -61q48 0 115 49q28 21 46 42q14 16 17 25
q-4 9 -27 30.5t-63 49.5q-37 25 -69 42q-28 14 -39 16q-3 -2 -8 -10t-14 -29q-11 -26 -18 -37q-17 -26 -42 -26h-1q-31 1 -96 45q-58 39 -104 85h-1q-46 47 -85 104q-44 65 -44 97q-1 25 25 42q11 7 37 19q21 9 29 13.5t10 8.5q-1 11 -16 39q-17 32 -42 68
q-28 41 -49.5 63.5t-30.5 27.5q-9 -3 -25 -17q-21 -18 -42 -47q-49 -66 -49 -114q0 -54 61 -152q62 -101 156 -197z" />
    <glyph glyph-name="android" unicode="&#xe61a;" 
d="M117 931v0v0zM396 657q9 0 15.5 6.5t6.5 15.5t-6.5 15.5t-15.5 6.5t-15 -6.5t-6 -15.5t6 -15.5t15 -6.5zM636 657q9 0 15 6.5t6 15.5t-6 15.5t-15 6.5t-16 -6.5t-7 -15.5t7 -15.5t16 -6.5zM175 553q24 0 41 -17t17 -41v-244q0 -24 -16.5 -41t-41 -17t-41.5 17t-17 41v244
q0 24 17 41t41 17v0zM776 542v-378q0 -26 -18 -44t-44 -18h-42v-129q0 -24 -17 -41t-41.5 -17t-41.5 17t-17 41v129h-78v-129q0 -24 -17 -41t-42 -17q-23 0 -40 17t-17 41l-1 129h-42q-26 0 -44 18t-18 44v378h520v0zM645 771q60 -31 96.5 -86.5t36.5 -122.5h-525
q0 67 36.5 122.5t97.5 86.5l-40 75q-4 7 3 11q7 3 11 -3l41 -75q54 24 114 24t114 -24l41 75q4 6 11 3q7 -4 3 -11zM915 495v-244q0 -24 -17 -41t-41 -17t-41 17t-17 41v244q0 24 17 41t41 17t41 -17t17 -41z" />
    <glyph glyph-name="next" unicode="&#xe612;" 
d="M272 704l120 120l440 -440l-440 -440l-120 120l320 320z" />
    <glyph glyph-name="prev" unicode="&#xe613;" 
d="M792 704l-120 120l-440 -440l440 -440l120 120l-320 320z" />
    <glyph glyph-name="wo" unicode="&#xe602;" 
d="M942 6q-34 150 -154 247q-58 47 -128 72q-13 5 -27 9q29 17 53 41q73 73 73 176.5t-73.5 177t-177 73.5t-177 -73.5t-73.5 -177t74 -176.5q24 -25 53 -41q-13 -4 -26 -9q-70 -25 -128 -73q-120 -97 -153 -248q-3 -10 3 -19t16 -11q3 -1 6 -1q8 0 15.5 5.5t9.5 14.5
q29 133 135 220q52 41 114 64q64 23 133 23t133 -23q62 -22 113 -64q106 -86 136 -218q2 -11 11 -16.5t19.5 -3t16 11.5t3.5 19v0zM309 551.5q0 82.5 58.5 141t141 58.5t141 -58.5t58.5 -141t-58.5 -141t-141 -58.5t-141 58.5t-58.5 141z" />
    <glyph glyph-name="cost" unicode="&#xe619;" 
d="M847 813q5 6 4.5 14t-7 13t-14 4.5t-13.5 -6.5l-304 -360l-305 359q-5 6 -13 7t-14 -4.5t-6.5 -13.5t4.5 -14l314 -369v-55h-226q-8 0 -13.5 -5.5t-5.5 -13.5t5.5 -13.5t13.5 -5.5h226v-171h-226q-8 0 -13.5 -5.5t-5.5 -13.5t5.5 -13.5t13.5 -5.5h226v-198q0 -8 5.5 -14
t13.5 -6t13.5 6t5.5 14v198h225q8 0 14 5.5t6 13.5t-6 13.5t-14 5.5h-225v171h225q8 0 14 5.5t6 13.5t-6 13.5t-14 5.5h-225v52z" />
    <glyph glyph-name="share" unicode="&#xe611;" 
d="M930.5 363q-6.5 0 -11.5 -4.5t-5 -11.5v-300q0 -35 -24.5 -60t-59.5 -25h-663q-35 0 -60 25t-25 60v630q0 35 25 60t60 25h216q6 0 11 4.5t5 11.5t-5 11.5t-11 4.5h-216q-48 0 -82.5 -34.5t-34.5 -82.5v-630q0 -48 34.5 -82.5t82.5 -34.5h663q48 0 82 34.5t34 82.5v300
q0 7 -4.5 11.5t-11 4.5zM973 723q1 2 1 2.5t-0.5 3t-0.5 3.5v0v0l-1.5 1.5l-0.5 0.5q-1 2 -1.5 2.5l-2.5 2.5l-1 0.5l-1 0.5l-192 96q-6 3 -12.5 1t-9 -8t-0.5 -12t8 -9l136 -69q-83 -6 -157 -30.5t-129.5 -58.5t-104.5 -79.5t-82 -90t-60.5 -94.5t-43.5 -87.5t-28 -74.5
t-15.5 -50.5t-4.5 -20.5t2.5 -12t10.5 -7h3q13 0 16 13q1 11 6.5 32.5t26.5 76t49 107t78 115t110.5 109.5t151 81.5t194.5 40.5l-132 -132q-11 -11 0 -22q5 -5 11.5 -5t11.5 5l160 160v0q2 2 3 4v0v0.5t0.5 0.5t0.5 3z" />
    <glyph glyph-name="tianjia" unicode="&#xe603;" 
d="M912 326h-344v-344h-114v344h-343v115h343v343h114v-343h344v-115z" />
    <glyph glyph-name="menu" unicode="&#xe61c;" 
d="M33 384.5q0 39.5 28 67.5t68 28t68 -28t28 -67.5t-28 -68t-68 -28.5t-68 28.5t-28 68zM416 384.5q0 39.5 28 67.5t68 28t68 -28t28 -67.5t-28 -68t-68 -28.5t-68 28.5t-28 68zM799 384.5q0 39.5 28 67.5t68 28t68 -28t28 -67.5t-28 -68t-68 -28.5t-68 28.5t-28 68z" />
    <glyph glyph-name="pwd" unicode="&#xe60c;" 
d="M874 -66h-724q-25 0 -42.5 17t-17.5 41v416q0 25 17.5 42t42.5 17h724q25 0 42.5 -17t17.5 -42v-416q0 -24 -17.5 -41t-42.5 -17v0v0zM150 428q-8 0 -14 -6t-6 -14v-416q0 -8 6 -13.5t14 -5.5h724q8 0 14 5.5t6 13.5v416q0 8 -6 14t-14 6h-724zM770 437q-9 0 -14.5 6
t-5.5 14v107q0 96 -70 163.5t-168 67.5t-168 -67.5t-70 -163.5v-107q0 -8 -6 -14t-14 -6t-14 6t-6 14v107q0 112 81.5 191t196.5 79t196.5 -79t81.5 -191v-107q0 -8 -6 -14t-14 -6v0v0zM572 70h-120v101q-44 30 -44 81q0 42 30.5 71.5t73.5 29.5t73.5 -29.5t30.5 -71.5
q0 -51 -44 -81v-101zM492 109h40v84l10 5q34 18 34 54q0 26 -19 44t-45 18t-45 -18t-19 -44q0 -36 33 -54l11 -5v-84z" />
    <glyph glyph-name="jubao" unicode="&#xe60f;" 
d="M829 302q-12 47 -20 66q12 12 12 13q-2 6 -46 16.5t-126.5 20.5t-166.5 10q-181 0 -318 -47q6 -7 18 -17q-22 -35 -24 -62q-29 -10 -46 -24.5t-21 -27.5t-5.5 -26t0.5 -20q5 -78 94 -105l33 -7q4 -7 12 -17.5t35.5 -38.5t58 -49t78.5 -38.5t97 -17.5q50 0 96 16.5
t77 40.5t55 48t35 41l11 17q6 0 14.5 1.5t31 8.5t40.5 17.5t32.5 33t16.5 51.5q3 71 -59 92zM764 165l-37 -2l-20 -32q-2 -5 -9 -14.5t-28 -31t-44 -39t-59 -31t-73 -13.5t-74.5 14t-61.5 31t-46 38.5t-29 31t-11 14.5l-19 29l-34 3q-2 0 -6.5 0.5t-14.5 4t-18.5 8t-15 13
t-7.5 19.5v4l-1 9q4 7 25 14l44 16l3 46q1 9 13 28l5 6v0v0l21 -10q6 -3 32.5 -21t40 -25t40 -19t54 -17.5t59.5 -5.5q32 -1 61 4.5t56 17.5t42.5 20.5t43 26.5t33.5 22l15 7q1 0 1.5 -0.5t1.5 -0.5q7 -19 13 -46l13 -47l48 -5q12 -2 11 -23q-2 -35 -68 -44zM423 643
q0 -8 3.5 -19t18 -26t36.5 -24l14 -4l13 5q22 8 35.5 25t16 27t3.5 18l1 32h-141v-34zM955 636q-4 20 -25 28q-3 1 -25 11q-155 70 -246.5 108t-118 46t-40.5 8v0q-51 0 -406 -173q-17 -10 -23.5 -26t2.5 -35q4 -7 23 -36q24 -35 31 -46q10 -17 20 -51v-2q1 -3 1 -4l9 -33
l35 9v0l1 1v0q2 0 5 1v0v0q136 32 297 32q158 0 296 -36l39 -10l5 37q1 3 2 8q0 1 1 3q1 3 3 7l0.5 0.5t0.5 1.5q14 28 42 54l60 60q16 17 11 37zM833 589q-37 -35 -55 -74q-135 30 -283 30q-114 0 -227 -18q-32 -4 -62 -11q-9 26 -18 41q-7 12 -25 38q0 1 -1 2q-3 4 -7 10
q-2 2 -4 5q131 64 232.5 108.5t116.5 45.5q3 0 8 -2q18 -5 53 -18q91 -35 300 -129z" />
    <glyph glyph-name="zan2" unicode="&#xe604;" 
d="M905 283q2 33 -14 57q21 23 22 57q0 26 -11 46t-29 31t-36 16.5t-36 7.5h-1h-134v0h-5q-9 14 3 30q43 50 70 126q15 41 -0.5 79t-46.5 64l-5 5l-7 2q-9 2 -17 2q-15 0 -27 -7q-28 -16 -33 -60q-7 -52 -28 -95.5t-48 -63.5q-7 -5 -10 -7q-18 -15 -51 -80l-9 -16
q-1 -3 -5 -14.5t-8 -20t-17 -19.5t-33 -18q-7 -2 -15 -2q-2 0 -7 1v38h-255v-437h255v33l22 -2l62 -31h194h129q43 1 64 27q23 31 15 73q24 23 29 71q2 23 -9 43q29 25 32 64zM330 41h-182v364h182v-364zM864 364l-20 -22l17 -23q9 -13 8 -34q-2 -24 -20 -39l-23 -20l16 -26
q5 -9 4 -20q-4 -35 -18 -49l-15 -14l4 -19q5 -26 -8 -44q-10 -12 -35 -12q-29 -1 -129 -1h-185l-60 30l-33 3v293q3 -1 7 -1q14 0 27 5q22 8 38 19t24.5 24.5t12 21t7.5 18.5q1 6 2 7l8 15q30 59 42 68q2 2 8 7q34 24 58.5 74t32.5 109q3 27 15 33q3 2 9 2h7q5 -5 9.5 -10
t12.5 -16t11.5 -21.5t5.5 -26t-4 -29.5q-26 -70 -64 -114l-1 -1v-1q-12 -15 -14 -34t11 -39l2 -4l4 -3q11 -9 28 -9h132q7 0 16.5 -2t25.5 -8t26.5 -20t9.5 -33q0 -20 -12 -34z" />
    <glyph glyph-name="shanchu" unicode="&#xe605;" 
d="M512 832q-91 0 -174 -35.5t-143 -95.5t-95.5 -143t-35.5 -174t35.5 -174t95.5 -143t143 -95.5t174 -35.5t174 35.5t143 95.5t95.5 143t35.5 174t-35.5 174t-95.5 143t-143 95.5t-174 35.5zM712 246l-62 -62l-138 138l-138 -138l-62 62l138 138l-138 138l62 62l138 -138
l138 138l62 -62l-138 -138z" />
    <glyph glyph-name="qianjin" unicode="&#xe606;" 
d="M785 413l-450 410q-11 11 -26.5 11t-27 -11t-11.5 -26.5t12 -26.5l423 -386l-423 -386q-12 -11 -12 -26.5t12 -26.5q11 -11 26.5 -11t26.5 11l450 410q12 12 11 29q1 17 -11 29z" />
    <glyph glyph-name="iphone" unicode="&#xe61b;" 
d="M775 230q38 -55 87 -71q-21 -67 -68 -139q-72 -110 -142 -110q-26 0 -77 18q-47 18 -82.5 18t-78.5 -19q-45 -18 -74 -18q-84 0 -165 145q-81 142 -81 280q0 128 62 209q63 81 156 81q21 0 46 -5t52 -19q29 -17 47.5 -23t28.5 -6q13 0 38 6t50 21q27 15 46.5 22.5
t40.5 7.5q65 0 117 -36q28 -19 57 -56q-43 -38 -62 -66q-37 -53 -37 -115q0 -69 39 -125v0v0zM587 671q-33 -31 -60 -40q-8 -3 -23 -5q-14 -3 -33 -5q1 83 42.5 143.5t137.5 83.5q2 -10 3 -13v-11q0 -34 -16 -76t-51 -77v0v0zM587 671z" />
    <glyph glyph-name="huifu1" unicode="&#xe607;" horiz-adv-x="1195" 
d="M962 834h-750q-62 0 -106 -44t-44 -106v-450q0 -62 44 -106t106 -44h75v-150h75l150 150h450q62 0 106 44t44 106v450q0 62 -44 106t-106 44zM362 384q-34 0 -54.5 20.5t-20.5 54.5t20.5 54.5t54.5 20.5t54.5 -20.5t20.5 -54.5t-20.5 -54.5t-54.5 -20.5zM587 384
q-34 0 -54.5 20.5t-20.5 54.5t20.5 54.5t54.5 20.5t54.5 -20.5t20.5 -54.5t-20.5 -54.5t-54.5 -20.5zM812 384q-34 0 -54.5 20.5t-20.5 54.5t20.5 54.5t54.5 20.5t54.5 -20.5t20.5 -54.5t-20.5 -54.5t-54.5 -20.5z" />
    <glyph glyph-name="haoyou" unicode="&#xe610;" 
d="M602 307q-93 0 -159 66t-66 159.5t66 159.5t159.5 66t159.5 -66t66 -159.5t-66 -159.5t-160 -66v0zM602 715q-75 0 -128.5 -53.5t-53.5 -129t53.5 -129t129 -53.5t129 53.5t53.5 129t-53.5 129t-129.5 53.5v0zM942 -32q-9 0 -15.5 6t-6.5 15q0 132 -92 225q-7 6 -7 15
t6.5 15t15.5 6t15 -6q51 -51 78 -117t27 -138q0 -9 -6 -15t-15 -6v0v0zM601 307q-86 0 -158.5 -42.5t-115 -116t-42.5 -159.5q0 -9 -6.5 -15t-15.5 -6t-15 6t-6 15q0 98 48 181t131.5 131.5t180.5 48.5h3q8 -1 14 -7.5t5 -14.5q0 -10 -7 -16t-16 -5v0zM354 669
q-59 0 -100.5 -44.5t-41.5 -107t41.5 -106.5t100.5 -44q9 0 15 -6.5t6 -15.5t-6 -15t-15 -6q-77 0 -131 56.5t-54 137t54 137.5t131 57q9 0 15 -6.5t6 -15.5t-6 -15t-15 -6v0zM354 323q-104 0 -177 -78t-73 -188q0 -9 -6.5 -15t-15.5 -6t-15 6t-6 15q0 128 86 218.5
t207 90.5q9 0 15 -6t6 -15t-6 -15.5t-15 -6.5v0z" />
    <glyph glyph-name="didian" unicode="&#xe608;" 
d="M512 -87l-17 17q-8 5 -43 38.5t-87 92t-100.5 122t-83.5 136.5t-35 128q0 100 49 184t133 133t184 49t184 -49t133 -133t49 -184q0 -55 -35 -128t-83.5 -136.5t-100.5 -122t-87 -92t-43 -38.5zM512 756q-83 0 -154.5 -41.5t-113 -113t-41.5 -154.5q0 -47 33 -113
t84.5 -131.5t99 -117t92.5 -94.5q44 42 92 95.5t99.5 119t84.5 131t33 110.5q0 83 -41.5 154.5t-113 113t-154.5 41.5v0zM512 756zM512 312q-63 0 -107.5 44.5t-44.5 107.5t44.5 107.5t107.5 44.5t107.5 -44.5t44.5 -107.5t-44.5 -107.5t-107.5 -44.5v0zM512 560
q-38 0 -67 -29t-29 -67t29 -67t67 -29t67 29t29 67t-29 67t-67 29v0zM512 560z" />
    <glyph glyph-name="user" unicode="&#xe60d;" 
d="M647 360q55 35 87 91.5t32 123.5q0 105 -74.5 179.5t-179.5 74.5t-179.5 -74.5t-74.5 -179.5q0 -67 32 -123.5t87 -91.5q-123 -43 -200.5 -149.5t-77.5 -240.5v-31h826v31q0 134 -77.5 241t-200.5 149zM320 575.5q0 79.5 56.5 135.5t135.5 56t135.5 -56t56.5 -135.5
t-56.5 -136t-135.5 -56.5t-135.5 56.5t-56.5 136zM162 1q12 135 112.5 227.5t237.5 92.5t237.5 -92.5t112.5 -227.5h-700z" />
    <glyph glyph-name="xiaoxi" unicode="&#xe609;" horiz-adv-x="1056" 
d="M995 238q0 109 -79 190q-3 -104 -61 -191t-154.5 -138t-210.5 -51q-18 0 -37 2q44 -45 104 -71t128 -26q39 0 77 9l108 -54q18 -9 26.5 -3.5t6.5 15t-1 10.5l-20 88q53 40 83 97.5t30 122.5zM859 468.5q0 99.5 -53 183.5t-144.5 133t-199.5 49t-199.5 -49t-144.5 -133
t-53 -184q0 -83 38.5 -156.5t105.5 -125.5l-25 -113v0q0 -2 -0.5 -4t-0.5 -7t1 -9t3.5 -8t6.5 -6t12 -0.5t19 6.5l139 69q48 -11 98 -11q108 0 199.5 49t144.5 133t53 183.5zM326 530.5q-5 -18.5 -22 -28t-35.5 -4t-28 22t-4 35t22 28t35 4.5t28 -22t4.5 -35.5zM639 440.5
q5 18.5 22 28t35.5 4t28 -22.5t4 -35.5t-22.5 -27.5t-35.5 -4t-27.5 22t-4 35.5zM437.5 498.5q5.5 18.5 22.5 27.5t35.5 4t27.5 -22t4 -35.5t-22 -28t-35.5 -4t-28 22.5t-4 35.5z" />
    <glyph glyph-name="zan" unicode="&#xe617;" 
d="M885 473h-238q19 69 25.5 126.5t2.5 93.5t-14.5 63.5t-23 41t-25.5 21.5t-20 10t-9 2q-22 0 -35.5 -8.5t-16 -18.5t-3.5 -21.5t-2 -12.5q0 -47 -18 -94.5t-44 -82.5t-52 -63t-44 -43l-19 -14v-472q0 -22 17.5 -37t37 -21t34.5 -6h357q10 0 19.5 9t16.5 22t13 26t9 22
l3 10q40 133 62 230.5t24 128.5l3 31q0 17 -6.5 29.5t-15 17.5t-17.5 7.5t-15 2.5h-6v0v0zM252 473h-143q-13 0 -20.5 -7.5t-8.5 -14.5l-1 -7l30 -476q0 -14 7.5 -21.5t15.5 -8.5l7 -1h123q12 0 18.5 5t6.5 10l1 5v480q0 16 -9 25t-18 10l-9 1v0v0zM252 473z" />
    <glyph glyph-name="time-copy" unicode="&#xe60a;" 
d="M809 680q-60 59 -136.5 91t-160.5 32t-160.5 -32t-135.5 -91t-91 -135.5t-32 -160.5t32 -160.5t91 -136t135.5 -91t160.5 -31.5t160.5 31.5t136.5 91.5q80 80 108.5 188t0 216t-108.5 188v0zM770 126q-52 -51 -118.5 -78.5t-139.5 -27.5t-139.5 27.5t-118 79t-79 118
t-27.5 139.5t27.5 139.5t79 118t118 79t139.5 27.5t139.5 -27.5t118.5 -79.5q70 -69 94.5 -163t0 -188t-94.5 -164v0zM693 281l-144 84v228q0 15 -10.5 25t-25 10t-24.5 -10t-10 -25v-244q0 -15 26 -30q3 -3 16 -11l144 -87q13 -7 25 -3.5t19 16.5q7 12 2 26t-18 21v0z
M693 281z" />
    <glyph glyph-name="sousuo" unicode="&#xe60b;" 
d="M244 248q-84 83 -84 202t83.5 202.5t202.5 83.5t202.5 -83.5t83.5 -202.5t-83.5 -202.5t-202.5 -83.5t-202 84v0zM922 15l-215 214q57 67 74.5 151t-6.5 167t-86 146q-50 49 -113 75t-130 26t-130.5 -26t-112.5 -75q-66 -66 -89.5 -154.5t0 -177t89.5 -154.5
q49 -49 112.5 -75t130.5 -26q123 0 221 83l214 -215z" />
    <glyph glyph-name="activity-sort" unicode="&#xe616;" 
d="M62 143q0 -87 61.5 -148t148 -61t147.5 61t61 148v209h-209q-87 0 -148 -61t-61 -148v0v0zM404 143q0 -55 -39 -94t-94 -39t-94 39t-39 94t39 94t94 39h133v-133zM962 625q0 87 -61.5 148t-148 61t-147.5 -61t-61 -148v-209h209q86 0 147.5 61t61.5 148v0zM620 625
q0 55 39 94t94 39t94 -39t39 -94t-39 -94t-94 -39h-133v133zM271 416h209v209q0 87 -61 148t-148 61t-148 -61t-61 -148t61 -148t148 -61v0zM271 758q55 0 94 -39t39 -94v-133h-133q-55 0 -94 39t-39 94t39 94t94 39v0zM753 352h-209v-209q0 -87 61 -148t148 -61t148 61
t61 148t-61 148t-148 61v0zM753 10q-55 0 -94 39t-39 94v133h133q55 0 94 -39t39 -94t-39 -94t-94 -39v0z" />
    <glyph glyph-name="pwd-see" unicode="&#xe65f;" horiz-adv-x="1781" 
d="M1751 397v-2h-0.5t-0.5 -0.5v-1v-0.5v-1v-2v0q-3 -20 -18 -34q-21 -24 -58 -60q-174 -169 -366 -264q-144 -72 -274 -95q-160 -28 -316 4q-241 50 -488 243q-117 91 -187 172q-19 21 -19 44t19 44q20 24 57 60q175 169 366 264q144 72 275 95q160 28 315 -4
q241 -50 489 -243q117 -91 187 -172q15 -14 18 -34v-1v-1.5v-1.5v-1l1 -2v-3v-3v0zM868 703q-88 0 -163 -43.5t-118 -118.5t-43 -163t43 -162.5t118 -118t163 -43.5t163 43.5t118 118t43 162.5t-43 163t-118 118.5t-163 43.5v0zM868 184q-81 0 -138 57t-57 137.5t57 137.5
t138 57t138 -57t57 -137.5t-57 -137.5t-138 -57v0z" />
    <glyph glyph-name="pwd-close" unicode="&#xe660;" horiz-adv-x="1863" 
d="M1178 375l-325 -175q49 -27 106 -27q86 0 149 58.5t70 143.5v0zM740 409l325 175q-49 27 -106 27q-87 0 -150 -58.5t-69 -143.5v0zM626 348q-3 23 -3 44q0 91 45 168t122.5 122t168.5 45q125 0 220 -82l206 111q-219 105 -426 105q-110 0 -224.5 -30.5t-203 -74.5
t-177 -103.5t-142 -105t-101.5 -92.5q-27 -26 -27 -63t27 -63q86 -84 186 -157zM1807 455q-87 84 -186 157l-329 -176q3 -23 3 -44q0 -91 -45 -168t-122.5 -122t-168.5 -45q-125 0 -220 82l-207 -111q219 -105 427 -105q110 0 224 30.5t203 74.5t177 103.5t141.5 105
t101.5 92.5q27 26 27 63t-26 63v0zM1779 832q-11 20 -33 26.5t-43 -3.5l-1542 -828q-20 -11 -26.5 -33t4.5 -42q15 -29 49 -29q14 0 26 6l1542 828q21 11 27.5 33t-4.5 42v0z" />
    <glyph glyph-name="selected" unicode="&#xe61d;" 
d="M84 396h-58v-119h58v119v0zM84 77h-58q0 -61 43 -104.5t105 -43.5v58q-37 0 -63.5 26.5t-26.5 63.5zM84 238h-58v-120h58v120v0zM336 745h-119v-59h119v59v0zM650 695v50h-119v-59h109q2 2 10 9zM495 745h-119v-59h119v59zM174 687v58q-62 0 -105 -43.5t-44 -105.5h59
q0 38 26.5 64t63.5 27zM84 552h-58v-119h58v119zM787 277h58v119h-58v-119zM793 433h52v66q-28 -34 -52 -66zM787 118h58v120h-58v-120zM376 -73h119v59h-119v-59zM217 -73h119v59h-119v-59zM695 -13v-58q61 0 104.5 43.5t43.5 104.5h-58q0 -37 -26.5 -63.5t-63.5 -26.5v0z
M531 -73h119v59h-119v-59zM996 855q-97 -59 -188.5 -129.5t-163 -138t-120 -118.5t-88.5 -99l-218 171l-96 -77l376 -383q34 88 106.5 207.5t184.5 262t230 251.5z" />
    <glyph glyph-name="unselected" unicode="&#xe61e;" 
d="M172 687v58q-61 0 -104.5 -43.5t-43.5 -105.5h58q0 38 26.5 64t63.5 27zM215 745h119v-59h-119v59zM24 552h58v-119h-58v119zM843 499q-30 -37 -52 -66h52v66zM24 396h58v-119h-58v119zM648 695v50h-119v-59h110zM493 745h-119v-58h119v58zM785 396h58v-119h-58v119z
M693 -13v-58q62 0 105 43.5t43 104.5h-58q0 -37 -26.5 -63.5t-63.5 -26.5v0zM785 238h58v-120h-58v120zM529 -15h119v-58h-119v58zM24 238h58v-120h-58v120zM82 77h-58q0 -61 43.5 -104.5t104.5 -43.5v58q-37 0 -63.5 26.5t-26.5 63.5zM215 -15h119v-58h-119v58zM374 -15
h119v-58h-119v58z" />
  </font>
</defs>
</svg>
